<?xml version="1.0" encoding="utf-8"?>
<!-- Generator: Adobe Illustrator 16.0.0, SVG Export Plug-In . SVG Version: 6.00 Build 0)  -->
<!DOCTYPE svg PUBLIC "-//W3C//DTD SVG 1.1//EN" "http://www.w3.org/Graphics/SVG/1.1/DTD/svg11.dtd">
<svg version="1.1" id="Layer_1" xmlns="http://www.w3.org/2000/svg" xmlns:xlink="http://www.w3.org/1999/xlink" x="0px" y="0px"
	 width="32px" height="32px" viewBox="0 0 32 32" enable-background="new 0 0 32 32" xml:space="preserve">
<g id="Bloco">
	<path fill="#FFFFFF" stroke="#D7D7D7" stroke-miterlimit="10" d="M29.56,21.103c0,1.2-1.569,2.271-4.06,3.011
		c-2.18,0.649-5.08,1.04-8.25,1.04s-6.07-0.391-8.25-1.04c-2.49-0.74-4.06-1.811-4.06-3.011c0-2.229,5.51-4.039,12.31-4.039
		S29.56,18.873,29.56,21.103z"/>
	<path fill="#F3F3F3" stroke="#D7D7D7" stroke-miterlimit="10" d="M29.56,21.103v6c0,2.24-5.51,4.051-12.31,4.051
		S4.94,29.343,4.94,27.103v-6c0,1.2,1.57,2.271,4.06,3.011c2.18,0.649,5.08,1.04,8.25,1.04s6.07-0.391,8.25-1.04
		C27.99,23.373,29.56,22.303,29.56,21.103z"/>
</g>
<g id="Bloco_1_">
	<path fill="#FFFFFF" stroke="#D7D7D7" stroke-miterlimit="10" d="M29.56,14.619c0,1.2-1.569,2.271-4.06,3.011
		c-2.18,0.649-5.08,1.04-8.25,1.04S11.18,18.279,9,17.63c-2.49-0.74-4.06-1.811-4.06-3.011c0-2.229,5.51-4.04,12.31-4.04
		S29.56,12.39,29.56,14.619z"/>
	<path fill="#F3F3F3" stroke="#D7D7D7" stroke-miterlimit="10" d="M29.56,14.619v6c0,2.24-5.51,4.051-12.31,4.051
		S4.94,22.859,4.94,20.619v-6c0,1.2,1.57,2.271,4.06,3.011c2.18,0.649,5.08,1.04,8.25,1.04s6.07-0.391,8.25-1.04
		C27.99,16.89,29.56,15.819,29.56,14.619z"/>
</g>
<g id="Bloco_2_">
	<path fill="#FFFFFF" stroke="#D7D7D7" stroke-miterlimit="10" d="M29.56,8.144c0,1.2-1.569,2.271-4.06,3.011
		c-2.18,0.649-5.08,1.04-8.25,1.04s-6.07-0.391-8.25-1.04c-2.49-0.74-4.06-1.811-4.06-3.011c0-2.229,5.51-4.04,12.31-4.04
		S29.56,5.914,29.56,8.144z"/>
	<path fill="#F3F3F3" stroke="#D7D7D7" stroke-miterlimit="10" d="M29.56,8.144v6c0,2.24-5.51,4.051-12.31,4.051
		S4.94,16.384,4.94,14.144v-6c0,1.2,1.57,2.271,4.06,3.011c2.18,0.649,5.08,1.04,8.25,1.04s6.07-0.391,8.25-1.04
		C27.99,10.414,29.56,9.344,29.56,8.144z"/>
</g>
<g id="Nome">
	<rect x="7.562" y="1.774" fill="#FFFFFF" stroke="#AAAAAA" stroke-miterlimit="10" width="19.376" height="6.375"/>
	<polyline fill="#FFFFFF" stroke="#000000" stroke-linecap="square" stroke-linejoin="round" stroke-miterlimit="10" points="
		11.289,5.451 12.086,5.642 12.852,4.056 13.811,5.868 14.77,4.056 15.727,5.868 16.853,4.056 17.853,5.868 18.936,4.056 
		20.269,5.868 21.144,4.056 22.478,5.868 23.211,4.591 	"/>
</g>
</svg>
